 http://img17.imageshack.us/img17/453/brunasurfistinha.jpg

Country.......: Brazil
Genre.........: Drama
Date release..: 25.02.2011 [World]
Director......: Marcus Baldini
Writers.......: Jose de Carvalho, Homero Olivetto
Duration......: 108 min.
More..........: http://www.imdb.com/title/tt1587828
Trailer.......: http://www.imdb.com/video/wab/vi307535129
Trailer.......:

Pilot :
Raquel is a girl, adopted by an upper middle class family, who rebelled at 17 and left her family and studies at a traditional college in Sao Paulo to become a call girl. Shortly after starting work, she decided to write a blog about her experiences. Since some clients thought she looked like a surfer she adopted the name "Surfistinha" which means little surfer girl. This blog became a sensation, and quickly became one of the most popular blogs in Brazil. Becoming famous, her life changed significantly. She went on to be interviewed on Brazilian talk shows similar to Oprah and David Letterman, all the while continuing her blog about her racy exploits. She wrote a book about these experiences: "O Doce Veneno Do Escorpiao".

Cats :
Deborah Secco   	 ...  	Raquel | Bruna Surfistinha
Cassio Gabus Mendes 	... 	Huldson
Drica Moraes 	... 	Larissa
Fabiula Nascimento 	... 	Janine
Cristina Lago 	... 	Gabi
Guta Ruiz 	... 	Carol
Clarisse Abujamra 	... 	Celeste
Luciano Chirolli 	... 	Otto
Sergio Guize 	... 	Rodrigo
Simone Iliescu 	... 	Yasmin
Erika Puga 	... 	Mel
Brenda Ligia 	... 	Kelly
Gustavo Machado 	... 	Miguel
Juliano Cazarre 	... 	Gustavo
Rodrigo Dorado 	... 	Rominho 

Data Technical :
!!! SAMPLE !!!
Audio.....: Portuguese
Subtitles.: English .srt
Format                           : AVI
Format/Info                      : Audio Video Interleave
File size                        : 1.46 GiB
Duration                         : 1h 47mn
Overall bit rate                 : 1 945 Kbps
Writing application              : FairUse Wizard
Writing library                  : The best and REALLY easy backup tool
Video
ID                               : 0
Format                           : MPEG-4 Visual
Format profile                   : Advanced Simple@L5
Format settings, BVOP            : Yes
Format settings, QPel            : No
Format settings, GMC             : No warppoints
Format settings, Matrix          : Default (H.263)
Muxing mode                      : Packed bitstream
Codec ID                         : XVID
Codec ID/Hint                    : XviD
Duration                         : 1h 47mn
Bit rate                         : 1 487 Kbps
Width                            : 704 pixels
Height                           : 376 pixels
Display aspect ratio             : 1.872
Frame rate                       : 23.976 fps
Color space                      : YUV
Chroma subsampling               : 4:2:0
Bit depth                        : 8 bits
Scan type                        : Progressive
Bits/(Pixel*Frame)               : 0.234
Stream size                      : 1.12 GiB (76%)
Writing library                  : XviD 1.2.1 (UTC 2008-12-04)
Audio
ID                               : 1
Format                           : AC-3
Format/Info                      : Audio Coding 3
Mode extension                   : CM (complete main)
Codec ID                         : 2000
Duration                         : 1h 47mn
Bit rate mode                    : Constant
Bit rate                         : 448 Kbps
Channel(s)                       : 6 channels
Channel positions                : Front: L C R, Side: L R, LFE
Sampling rate                    : 48.0 KHz
Bit depth                        : 16 bits
Stream size                      : 345 MiB (23%)
Alignment                        : Split accross interleaves
Interleave, duration             : 42 ms (1.00 video frame)
Interleave, preload duration     : 500 ms

Screen : 
http://img861.imageshack.us/img861/3171/brunasurfistinha2011s1.jpg 
http://img15.imageshack.us/img15/3184/brunasurfistinha2011s2.jpg 
http://img5.imageshack.us/img5/1320/brunasurfistinha2011s3.jpg 
http://img546.imageshack.us/img546/1476/brunasurfistinha2011s4.jpg 
http://img850.imageshack.us/img850/8112/brunasurfistinha2011s5.jpg